<svg version="1" xmlns="http://www.w3.org/2000/svg" width="682.667" height="682.667" viewBox="0 0 512.000000 512.000000"><path d="M78.6 81.9c.5.5 25.3 18.1 55.2 38.9l54.2 38V81h-55.2c-34.2 0-54.8.4-54.2.9z"/><path d="M215.8 148.2l-.3 67.3-100.8.3L14 216v80l100.7.2 100.8.3.3 67.2.2 67.3h80l.2-67.3.3-67.2 100.8-.3L498 296v-80l-100.7-.2-100.8-.3-.3-67.3L296 81h-80l-.2 67.2z"/><path d="M324 119.9v38.9l54.3-38c29.8-20.8 54.6-38.4 55.2-38.9.5-.5-20.1-.9-54.3-.9H324v38.9zM390.3 129.2l-66.2 46.3-.1 6.2v6.3H352.7l64.4-45.1c35.4-24.7 64.5-45.4 64.7-45.8.5-1.5-7.1-7.3-13.3-10.2-11.7-5.5-4.2-9.6-78.2 42.3zM25.4 101.2c-2.7 3.3-9.4 16.3-9.4 18.3 0 .6 21.5 16.2 47.8 34.6l47.7 33.4 23.3.5c12.7.3 23.2.3 23.2 0 0-.8-127.7-90-128.8-90-.6 0-2.3 1.5-3.8 3.2zM14 162v26l37 .2c20.4.2 37 .1 36.9-.2 0-.3-16.6-12.1-37-26.2L14 136.1V162zM460.8 161.8c-20.2 14.2-36.7 25.9-36.7 26.2-.1.3 16.5.4 36.9.2l37-.2v-26c0-14.3-.1-26-.2-25.9-.2 0-16.8 11.6-37 25.7zM50.8 323.8L14 324v51.9l35.8-25C69.4 337.1 86.2 325.5 87 325c.8-.5 1.3-1 1-1.2-.3-.2-17-.2-37.2 0zM354 324c0 .7 127 89.4 128.5 89.8.7.2 2.5-1.2 4-3 2.8-3.3 9.5-16.3 9.5-18.3 0-.6-21.5-16.2-47.7-34.6l-47.7-33.4-23.3-.5c-12.8-.3-23.3-.3-23.3 0zM424.1 324c0 .3 16.6 12.1 37 26.2l36.9 25.7V324l-37-.2c-20.4-.2-37-.1-36.9.2zM94.5 369.1c-35.2 24.7-64.1 45.3-64.3 45.8-1 2.8 17.3 13.4 23.3 13.5 2.4.1 16.3-9.2 68.7-45.9l65.7-46 .1-6.3V324l-14.7.1-14.8.1-64 44.9zM132.5 392l-54.9 38.5 54.8.3c30.2.1 55.1.1 55.3-.1.2-.2.2-17.7.1-38.8l-.3-38.4-55 38.5zM324 392.1V431h55.2c34.2 0 54.8-.4 54.3-.9-.6-.5-25.4-18.1-55.2-38.9l-54.3-38v38.9z"/></svg>